Coordinates
version=1
nRows=8
nColumns=40
inDegrees=yes

Units are S.I. units (second, meters, Newtons, ...)
If the header above contains a line with 'inDegrees', this indicates whether rotational values are in degrees (yes) or radians (no).

endheader
time	pelvis_tilt	pelvis_list	pelvis_rotation	pelvis_tx	pelvis_ty	pelvis_tz	hip_flexion_r	hip_adduction_r	hip_rotation_r	knee_angle_r	knee_angle_r_beta	ankle_angle_r	subtalar_angle_r	mtp_angle_r	hip_flexion_l	hip_adduction_l	hip_rotation_l	knee_angle_l	knee_angle_l_beta	ankle_angle_l	subtalar_angle_l	mtp_angle_l	lumbar_extension	lumbar_bending	lumbar_rotation	arm_flex_r	arm_add_r	arm_rot_r	elbow_flex_r	pro_sup_r	wrist_flex_r	wrist_dev_r	arm_flex_l	arm_add_l	arm_rot_l	elbow_flex_l	pro_sup_l	wrist_flex_l	wrist_dev_l
      3.00000000	     -6.62788061	    -10.28211680	      1.16515407	     -0.34053126	      0.72289425	     -0.97345446	     68.28072907	     -1.10098111	     -9.53524987	     18.91190538	      0.33007502	    -16.33070456	      0.00000000	      0.00000000	     64.53895803	     -8.92763434	      2.80950891	     94.74033093	      1.65353071	     26.02481046	      0.00000000	      0.00000000	    -18.78778877	      1.99812053	      6.81209112	     89.93540289	     -5.03066753	     14.88142811	     36.49477649	     81.44114119	      0.00000000	      0.00000000	     89.95439617	    -18.51299962	     18.01578049	     45.65176423	     81.34240481	      0.00000000	      0.00000000
      3.00500000	     -6.67833443	    -10.31963777	      1.29468931	     -0.34062181	      0.72254626	     -0.97359164	     68.32153167	     -1.18865544	     -9.55102768	     18.84103826	      0.32883815	    -16.33738147	      0.00000000	      0.00000000	     64.64529362	     -8.77336441	      2.94383888	     94.75672224	      1.65381679	     26.05733504	      0.00000000	      0.00000000	    -18.75247685	      2.08566944	      6.67366413	     89.93577254	     -4.97818619	     14.69359464	     36.52238582	     81.67659904	      0.00000000	      0.00000000	     89.95439795	    -18.59217642	     18.01973436	     45.72785455	     81.65201042	      0.00000000	      0.00000000
      3.01000000	     -6.70446933	    -10.31503764	      1.28785493	     -0.34056309	      0.72212665	     -0.97365523	     68.35161325	     -1.17256935	     -9.45134104	     18.78422425	      0.32784656	    -16.30130313	      0.00000000	      0.00000000	     64.75165586	     -8.71082509	      3.00146896	     94.84560237	      1.65536804	     25.92499394	      0.00000000	      0.00000000	    -18.73020603	      2.08713761	      6.70465483	     89.93590577	     -5.04994107	     14.73591939	     36.60383596	     81.65657562	      0.00000000	      0.00000000	     89.95438787	    -18.55589246	     17.98431629	     45.75706384	     81.71574223	      0.00000000	      0.00000000
      3.01500000	     -6.70811432	    -10.34370134	      1.25252062	     -0.34039198	      0.72180373	     -0.97352549	     68.38308577	     -1.10560669	     -9.46965374	     18.78149109	      0.32779886	    -16.26017020	      0.00000000	      0.00000000	     64.72698514	     -8.75998054	      2.97731456	     94.89356599	      1.65620517	     26.15495613	      0.00000000	      0.00000000	    -18.71473320	      2.09367452	      6.83374654	     89.93591674	     -5.16228764	     14.74403436	     36.64484192	     81.55137219	      0.00000000	      0.00000000	     89.95426835	    -18.45277491	     17.97078921	     45.80801094	     81.84423456	      0.00000000	      0.00000000
      3.02000000	     -6.74267648	    -10.40049028	      1.31549655	     -0.34039985	      0.72149038	     -0.97357368	     68.41442041	     -1.12654731	     -9.52483225	     18.73536800	      0.32699386	    -16.27321972	      0.00000000	      0.00000000	     64.82339922	     -8.68418454	      3.09764547	     94.94988088	      1.65718805	     26.15229576	      0.00000000	      0.00000000	    -18.68303612	      2.16944133	      6.78377308	     89.93597061	     -5.17505760	     14.69701352	     36.67840838	     81.63303881	      0.00000000	      0.00000000	     89.95437799	    -18.45529445	     17.95289702	     45.80518189	     81.76965653	      0.00000000	      0.00000000
      3.02500000	     -6.63007572	    -10.42255149	      1.32961257	     -0.34027135	      0.72139454	     -0.97360850	     68.31413546	     -1.11012832	     -9.64569248	     18.71357310	      0.32661347	    -16.45810600	      0.00000000	      0.00000000	     64.71870380	     -8.68360165	      3.11789961	     95.00776408	      1.65819830	     26.19338754	      0.00000000	      0.00000000	    -18.80924452	      2.21044214	      6.78425239	     89.93608885	     -5.08244268	     15.39598357	     36.85676518	     73.92286152	      0.00000000	      0.00000000	     89.95436536	    -18.50129587	     18.74001514	     46.01199144	     74.03488708	      0.00000000	      0.00000000
      3.03000000	     -6.64923031	    -10.39560138	      1.29024897	     -0.34013886	      0.72117955	     -0.97359897	     68.32497870	     -1.05610240	     -9.52059698	     18.65384698	      0.32557105	    -16.27880844	      0.00000000	      0.00000000	     64.72582456	     -8.64804630	      3.10778987	     95.03273905	      1.65863419	     26.26892244	      0.00000000	      0.00000000	    -18.79080579	      2.17745685	      6.85083430	     89.93626691	     -5.18145147	     14.52077715	     36.74124347	     81.62281702	      0.00000000	      0.00000000	     89.95426802	    -18.43203702	     17.90562923	     45.83627683	     81.74553798	      0.00000000	      0.00000000
      3.03500000	     -6.63885496	    -10.35885902	      1.23353296	     -0.33997059	      0.72099735	     -0.97354045	     68.35357939	     -1.00398986	     -9.50566569	     18.68841356	      0.32617435	    -16.29058624	      0.00000000	      0.00000000	     64.69638754	     -8.64492887	      3.06510165	     95.06735879	      1.65923842	     26.34060965	      0.00000000	      0.00000000	    -18.80192486	      2.12326993	      6.92449050	     89.93609813	     -5.23268684	     14.50698193	     36.76123719	     81.69201895	      0.00000000	      0.00000000	     89.95441904	    -18.40526374	     17.90360847	     45.83971714	     81.75323817	      0.00000000	      0.00000000
